# xmcd
#
# Track frame offsets:
#	150
#	20549
#	39671
#	56194
#	74412
#	89003
#
# Disc length: 1514 seconds
#
# Revision: 1
# Processed by: cddbd v1.5.2PL0 Copyright (c) Steve Scherf et al.
# Submitted via: EasyCDDAExtractor 2010.4.0.0
#
DISCID=5505e806
DTITLE=Tom Richardson Project -  Guide Your Ship
DYEAR=2011
DGENRE=Blues
TTITLE0=Stone Breakers
TTITLE1=Other Side Of The Street
TTITLE2=Mumma Says
TTITLE3=Home
TTITLE4=To Grow Old
TTITLE5=Feel This Safe
EXTD=
EXTT0=
EXTT1=
EXTT2=
EXTT3=
EXTT4=
EXTT5=
PLAYORDER=
